<svg id="Layer_2" data-name="Layer 2" xmlns="http://www.w3.org/2000/svg" viewBox="0 0 370.47 385.51"><defs><style>.cls-1{fill:#9fe1e9;}.cls-2{fill:none;}.cls-3{fill:#0073ba;}.cls-4{fill:#00aae2;}</style></defs><path class="cls-1" d="M423.32,58.51H177.13V444H423.32a10.82,10.82,0,0,0,10.82-10.82V69.33A10.81,10.81,0,0,0,423.32,58.51Z" transform="translate(-63.77 -58.51)"/><polygon class="cls-2" points="370.37 321.26 370.37 64.25 241.87 192.75 370.37 321.26"/><path class="cls-3" d="M305.64,251.26l128.5-128.5V69.23a10.72,10.72,0,0,0-10.72-10.72H369.89L241.39,187Z" transform="translate(-63.77 -58.51)"/><path class="cls-3" d="M305.64,251.26l-64.25,64.26L369.89,444h53.53a10.72,10.72,0,0,0,10.72-10.72V379.77Z" transform="translate(-63.77 -58.51)"/><path class="cls-3" d="M177.13,315.52,66.93,425.72A10.72,10.72,0,0,0,74.51,444H177.13l64.26-64.25Z" transform="translate(-63.77 -58.51)"/><path class="cls-3" d="M177.13,315.52l64.26-64.26L177.13,187l-56.7,56.7a10.68,10.68,0,0,0,0,15.1Z" transform="translate(-63.77 -58.51)"/><path class="cls-3" d="M241.39,122.76,177.13,58.51H74.51a10.72,10.72,0,0,0-7.58,18.3L177.13,187Z" transform="translate(-63.77 -58.51)"/><polygon class="cls-4" points="177.62 321.26 241.87 321.26 177.62 257.01 113.37 257.01 177.62 321.26"/><polygon class="cls-4" points="177.62 192.75 241.87 192.75 177.62 128.5 113.37 128.5 177.62 192.75"/><polygon class="cls-4" points="177.62 64.25 241.87 64.25 177.62 0 113.37 0 177.62 64.25"/><polygon class="cls-4" points="177.62 385.51 241.87 321.26 306.12 385.51 177.62 385.51"/><polygon class="cls-2" points="370.47 321.24 370.47 64.17 241.93 192.7 370.47 321.24"/></svg>